<?xml version='1.0' encoding='utf-8'?>
<svg id="s8" style="position: absolute; top:0; left:0;" width="595" xmlns="http://www.w3.org/2000/svg"><g><line fill="none" id="1746" stroke="rgb(0,0,0)" stroke-width="0.384" svgLId="511" x1="0.19" x2="0.19" y1="0.00" y2="82.00" /><text fill="rgb(0,0,0)" font-family="'Maestro'" font-size="20.500000" id="1747" svgLId="512" transform="translate(5.55, 15.38)">&amp;</text><text fill="rgb(0,0,0)" font-family="'Maestro'" font-size="20.500000" id="1748" svgLId="513" transform="translate(5.55, 66.63)">?</text><line fill="none" id="1749" stroke="rgb(0,0,0)" stroke-width="0.384" svgLId="514" x1="270.54" x2="270.54" y1="0.00" y2="82.00" /><line fill="none" id="1750" stroke="rgb(0,0,0)" stroke-width="0.384" svgLId="515" x1="505.26" x2="505.26" y1="0.00" y2="82.00" /><line fill="none" id="1751" stroke="rgb(0,0,0)" stroke-width="0.384" svgLId="516" x1="0.00" x2="505.45" y1="0.00" y2="0.00" /><line fill="none" id="1752" stroke="rgb(0,0,0)" stroke-width="0.384" svgLId="517" x1="0.00" x2="505.45" y1="5.13" y2="5.13" /><line fill="none" id="1753" stroke="rgb(0,0,0)" stroke-width="0.384" svgLId="518" x1="0.00" x2="505.45" y1="10.25" y2="10.25" /><line fill="none" id="1754" stroke="rgb(0,0,0)" stroke-width="0.384" svgLId="519" x1="0.00" x2="505.45" y1="15.38" y2="15.38" /><line fill="none" id="1755" stroke="rgb(0,0,0)" stroke-width="0.384" svgLId="520" x1="0.00" x2="505.45" y1="20.50" y2="20.50" /><line fill="none" id="1756" stroke="rgb(0,0,0)" stroke-width="0.384" svgLId="521" x1="0.00" x2="505.45" y1="61.50" y2="61.50" /><line fill="none" id="1757" stroke="rgb(0,0,0)" stroke-width="0.384" svgLId="522" x1="0.00" x2="505.45" y1="66.63" y2="66.63" /><line fill="none" id="1758" stroke="rgb(0,0,0)" stroke-width="0.384" svgLId="523" x1="0.00" x2="505.45" y1="71.75" y2="71.75" /><line fill="none" id="1759" stroke="rgb(0,0,0)" stroke-width="0.384" svgLId="524" x1="0.00" x2="505.45" y1="76.88" y2="76.88" /><line fill="none" id="1760" stroke="rgb(0,0,0)" stroke-width="0.384" svgLId="525" x1="0.00" x2="505.45" y1="82.00" y2="82.00" /><path d="M -2.563,0.000 C -15.375,20.500 3.843,30.750 -7.688,41.000 L -6.834,41.000 C 3.929,33.312 -10.165,15.375 -2.478,1.537 L -2.563,0.000" fill="rgb(0,0,0)" id="1761" stroke="none" svgLId="526" /><path d="M -2.563,82.000 C -15.375,61.500 3.843,51.250 -7.688,41.000 L -6.834,41.000 C 3.929,48.687 -10.165,66.625 -2.478,80.462 L -2.563,82.000" fill="rgb(0,0,0)" id="1762" stroke="none" svgLId="527" /><text fill="rgb(0,0,0)" font-family="'Times New Roman'" font-size="11.958333" id="1763" svgLId="528" transform="translate(-36.94, 44.84)">Pno.</text><text fill="rgb(0,0,0)" font-family="'Times New Roman'" font-size="8.541667" font-style="italic" id="1764" svgLId="529" transform="translate(1.28, -9.40)">21</text><line fill="none" id="1765" stroke="rgb(0,0,0)" stroke-width="0.384" svgLId="530" x1="27.33" x2="36.52" y1="-5.13" y2="-5.13" /><line fill="none" id="1766" stroke="rgb(0,0,0)" stroke-width="0.384" svgLId="531" x1="27.33" x2="36.52" y1="-10.25" y2="-10.25" /><text eleType="note" fill="rgb(0,0,0)" font-family="'Maestro'" font-size="20.500000" id="1767" positionX="82.427" svgLId="532" transform="translate(28.61, -10.25)">œ</text><line fill="none" id="1768" stroke="rgb(0,0,0)" stroke-width="0.384" svgLId="533" x1="28.81" x2="28.81" y1="-9.40" y2="8.97" /><line fill="none" id="1769" stroke="rgb(0,0,0)" stroke-width="0.384" svgLId="534" x1="42.71" x2="51.89" y1="-5.13" y2="-5.13" /><text eleType="note" fill="rgb(0,0,0)" font-family="'Maestro'" font-size="20.500000" id="1770" positionX="97.802" svgLId="535" transform="translate(43.99, -7.69)">œ</text><line fill="none" id="1771" stroke="rgb(0,0,0)" stroke-width="0.384" svgLId="536" x1="44.18" x2="44.18" y1="-6.83" y2="9.40" /><line fill="none" id="1772" stroke="rgb(0,0,0)" stroke-width="0.384" svgLId="537" x1="57.87" x2="67.05" y1="-5.13" y2="-5.13" /><text eleType="note" fill="rgb(0,0,0)" font-family="'Maestro'" font-size="20.500000" id="1773" positionX="112.964" svgLId="538" transform="translate(59.15, -5.13)">œ</text><line fill="none" id="1774" stroke="rgb(0,0,0)" stroke-width="0.384" svgLId="539" x1="59.34" x2="59.34" y1="-4.27" y2="9.83" /><text eleType="note" fill="rgb(0,0,0)" font-family="'Maestro'" font-size="20.500000" id="1775" positionX="128.125" svgLId="540" transform="translate(74.31, -2.56)">œ</text><line fill="none" id="1776" stroke="rgb(0,0,0)" stroke-width="0.384" svgLId="541" x1="74.50" x2="74.50" y1="-1.71" y2="10.25" /><path d="M 28.614,7.687 L 74.696,8.968 L 74.696,11.531 L 28.614,10.250 L 28.614,7.687" fill="rgb(0,0,0)" fill-rule="nonzero" id="1777" stroke="none" svgLId="542" /><path d="M 28.614,3.843 L 74.696,5.125 L 74.696,7.687 L 28.614,6.406 L 28.614,3.843" fill="rgb(0,0,0)" fill-rule="nonzero" id="1778" stroke="none" svgLId="543" /><text eleType="note" fill="rgb(0,0,0)" font-family="'Maestro'" font-size="20.500000" id="1779" positionX="143.927" svgLId="544" transform="translate(90.11, 0.00)">œ</text><text fill="rgb(0,0,0)" font-family="'Maestro'" font-size="20.500000" id="1780" svgLId="545" transform="translate(83.49, 0.00)">#</text><line fill="none" id="1781" stroke="rgb(0,0,0)" stroke-width="0.384" svgLId="546" x1="90.31" x2="90.31" y1="0.85" y2="16.66" /><text fill="rgb(0,0,0)" font-family="'Times'" font-size="8.541667" id="1782" svgLId="547" transform="translate(91.18, -5.13)">2</text><text eleType="note" fill="rgb(0,0,0)" font-family="'Maestro'" font-size="20.500000" id="1783" positionX="158.875" svgLId="548" transform="translate(105.06, -2.56)">œ</text><line fill="none" id="1784" stroke="rgb(0,0,0)" stroke-width="0.384" svgLId="549" x1="105.25" x2="105.25" y1="-1.71" y2="16.66" /><line fill="none" id="1785" stroke="rgb(0,0,0)" stroke-width="0.384" svgLId="550" x1="118.94" x2="128.13" y1="-5.13" y2="-5.13" /><text eleType="note" fill="rgb(0,0,0)" font-family="'Maestro'" font-size="20.500000" id="1786" positionX="174.036" svgLId="551" transform="translate(120.22, -5.13)">œ</text><line fill="none" id="1787" stroke="rgb(0,0,0)" stroke-width="0.384" svgLId="552" x1="120.42" x2="120.42" y1="-4.27" y2="16.66" /><text eleType="note" fill="rgb(0,0,0)" font-family="'Maestro'" font-size="20.500000" id="1788" positionX="189.198" svgLId="553" transform="translate(135.38, 0.00)">œ</text><line fill="none" id="1789" stroke="rgb(0,0,0)" stroke-width="0.384" svgLId="554" x1="135.58" x2="135.58" y1="0.85" y2="16.66" /><path d="M 90.114,15.375 L 135.769,15.375 L 135.769,17.937 L 90.114,17.937 L 90.114,15.375" fill="rgb(0,0,0)" fill-rule="nonzero" id="1790" stroke="none" svgLId="555" /><path d="M 90.114,11.531 L 135.769,11.531 L 135.769,14.093 L 90.114,14.093 L 90.114,11.531" fill="rgb(0,0,0)" fill-rule="nonzero" id="1791" stroke="none" svgLId="556" /><line fill="none" id="1792" stroke="rgb(0,0,0)" stroke-width="0.384" svgLId="557" x1="149.05" x2="158.23" y1="-5.13" y2="-5.13" /><text eleType="note" fill="rgb(0,0,0)" font-family="'Maestro'" font-size="20.500000" id="1793" positionX="204.146" svgLId="558" transform="translate(150.33, -7.69)">œ</text><line fill="none" id="1794" stroke="rgb(0,0,0)" stroke-width="0.384" svgLId="559" x1="150.52" x2="150.52" y1="-6.83" y2="14.09" /><line fill="none" id="1795" stroke="rgb(0,0,0)" stroke-width="0.384" svgLId="560" x1="164.43" x2="173.61" y1="-5.13" y2="-5.13" /><text eleType="note" fill="rgb(0,0,0)" font-family="'Maestro'" font-size="20.500000" id="1796" positionX="219.521" svgLId="561" transform="translate(165.71, -5.13)">œ</text><line fill="none" id="1797" stroke="rgb(0,0,0)" stroke-width="0.384" svgLId="562" x1="165.90" x2="165.90" y1="-4.27" y2="14.53" /><text eleType="note" fill="rgb(0,0,0)" font-family="'Maestro'" font-size="20.500000" id="1798" positionX="234.682" svgLId="563" transform="translate(180.87, -2.56)">œ</text><line fill="none" id="1799" stroke="rgb(0,0,0)" stroke-width="0.384" svgLId="564" x1="181.06" x2="181.06" y1="-1.71" y2="14.95" /><text eleType="note" fill="rgb(0,0,0)" font-family="'Maestro'" font-size="20.500000" id="1800" positionX="249.63" svgLId="565" transform="translate(195.82, 0.00)">œ</text><line fill="none" id="1801" stroke="rgb(0,0,0)" stroke-width="0.384" svgLId="566" x1="196.01" x2="196.01" y1="0.85" y2="15.38" /><path d="M 150.333,12.812 L 196.201,14.093 L 196.201,16.656 L 150.333,15.375 L 150.333,12.812" fill="rgb(0,0,0)" fill-rule="nonzero" id="1802" stroke="none" svgLId="567" /><path d="M 150.333,8.968 L 196.201,10.250 L 196.201,12.812 L 150.333,11.531 L 150.333,8.968" fill="rgb(0,0,0)" fill-rule="nonzero" id="1803" stroke="none" svgLId="568" /><text eleType="note" fill="rgb(0,0,0)" font-family="'Maestro'" font-size="20.500000" id="1804" positionX="264.578" svgLId="569" transform="translate(210.76, 2.56)">œ</text><line fill="none" id="1805" stroke="rgb(0,0,0)" stroke-width="0.384" svgLId="570" x1="210.96" x2="210.96" y1="3.42" y2="24.34" /><text eleType="note" fill="rgb(0,0,0)" font-family="'Maestro'" font-size="20.500000" id="1806" positionX="279.313" svgLId="571" transform="translate(225.50, 5.13)">œ</text><line fill="none" id="1807" stroke="rgb(0,0,0)" stroke-width="0.384" svgLId="572" x1="225.69" x2="225.69" y1="5.98" y2="25.19" /><text fill="rgb(0,0,0)" font-family="'Times'" font-size="8.541667" id="1808" svgLId="573" transform="translate(226.57, -1.71)">4</text><text eleType="note" fill="rgb(0,0,0)" font-family="'Maestro'" font-size="20.500000" id="1809" positionX="294.26" svgLId="574" transform="translate(240.45, 7.69)">œ</text><line fill="none" id="1810" stroke="rgb(0,0,0)" stroke-width="0.384" svgLId="575" x1="240.64" x2="240.64" y1="8.54" y2="26.05" /><text eleType="note" fill="rgb(0,0,0)" font-family="'Maestro'" font-size="20.500000" id="1811" positionX="309.208" svgLId="576" transform="translate(255.40, 10.25)">œ</text><line fill="none" id="1812" stroke="rgb(0,0,0)" stroke-width="0.384" svgLId="577" x1="255.59" x2="255.59" y1="11.10" y2="26.91" /><path d="M 210.765,23.062 L 255.779,25.625 L 255.779,28.187 L 210.765,25.625 L 210.765,23.062" fill="rgb(0,0,0)" fill-rule="nonzero" id="1813" stroke="none" svgLId="578" /><path d="M 210.765,19.218 L 255.7本曲谱版权归小叶子所有，未经授权擅自使用，必将追究法律责任！2="158.23" y1="87.13" y2="87.13" /><text eleType="note" fill="rgb(0,0,0)" font-family="'Maestro'" font-size="20.500000" id="1834" positionX="204.146" svgLId="599" transform="translate(150.33, 99.94)">œ</text><text eleType="note" fill="rgb(0,0,0)" font-family="'Maestro'" font-size="20.500000" id="1835" positionX="264.578" svgLId="600" transform="translate(210.76, 71.75)">‰</text><text fill="rgb(0,0,0)" font-family="'Maestro'" font-size="20.500000" id="1836" svgLId="601" transform="translate(240.45, 66.63)">J</text><line fill="none" id="1837" stroke="rgb(0,0,0)" stroke-width="0.384" svgLId="602" x1="240.64" x2="240.64" y1="52.10" y2="71.75" /><line fill="none" id="1838" stroke="rgb(0,0,0)" stroke-width="0.384" svgLId="603" x1="239.17" x2="248.35" y1="56.38" y2="56.38" /><line fill="none" id="1839" stroke="rgb(0,0,0)" stroke-width="0.384" svgLId="604" x1="239.17" x2="248.35" y1="51.25" y2="51.25" /><text eleType="note" fill="rgb(0,0,0)" font-family="'Maestro'" font-size="20.500000" id="1840" positionX="294.26" svgLId="605" transform="translate(240.45, 51.25)">œ</text><text eleType="note" fill="rgb(0,0,0)" font-family="'Maestro'" font-size="20.500000" id="1841" positionX="338.036" svgLId="606" transform="translate(284.22, 12.81)">œ</text><line fill="none" id="1842" stroke="rgb(0,0,0)" stroke-width="0.384" svgLId="607" x1="284.42" x2="284.42" y1="13.67" y2="29.47" /><text eleType="note" fill="rgb(0,0,0)" font-family="'Maestro'" font-size="20.500000" id="1843" positionX="351.703" svgLId="608" transform="translate(297.89, -2.56)">œ</text><line fill="none" id="1844" stroke="rgb(0,0,0)" stroke-width="0.384" svgLId="609" x1="298.08" x2="298.08" y1="-1.71" y2="28.66" /><text eleType="note" fill="rgb(0,0,0)" font-family="'Maestro'" font-size="20.500000" id="1845" positionX="367.505" svgLId="610" transform="translate(313.69, 0.00)">œ</text><text fill="rgb(0,0,0)" font-family="'Maestro'" font-size="20.500000" id="1846" svgLId="611" transform="translate(307.07, 0.00)">#</text><line fill="none" id="1847" stroke="rgb(0,0,0)" stroke-width="0.384" svgLId="612" x1="313.88" x2="313.88" y1="0.85" y2="27.72" /><text eleType="note" fill="rgb(0,0,0)" font-family="'Maestro'" font-size="20.500000" id="1848" positionX="381.172" svgLId="613" transform="translate(327.36, 2.56)">œ</text><line fill="none" id="1849" stroke="rgb(0,0,0)" stroke-width="0.384" svgLId="614" x1="327.55" x2="327.55" y1="3.42" y2="26.91" /><path d="M 284.223,28.187 L 327.743,25.625 L 327.743,28.187 L 284.223,30.750 L 284.223,28.187" fill="rgb(0,0,0)" fill-rule="nonzero" id="1850" stroke="none" svgLId="615" /><path d="M 284.223,24.343 L 327.743,21.781 L 327.743,24.343 L 284.223,26.906 L 284.223,24.343" fill="rgb(0,0,0)" fill-rule="nonzero" id="1851" stroke="none" svgLId="616" /><text eleType="note" fill="rgb(0,0,0)" font-family="'Maestro'" font-size="20.500000" id="1852" positionX="394.839" svgLId="617" transform="translate(341.03, 5.13)">œ</text><line fill="none" id="1853" stroke="rgb(0,0,0)" stroke-width="0.384" svgLId="618" x1="341.22" x2="341.22" y1="5.98" y2="26.91" /><text eleType="note" fill="rgb(0,0,0)" font-family="'Maestro'" font-size="20.500000" id="1854" positionX="408.505" svgLId="619" transform="translate(354.69, 7.69)">œ</text><line fill="none" id="1855" stroke="rgb(0,0,0)" stroke-width="0.384" svgLId="620" x1="354.88" x2="354.88" y1="8.54" y2="27.76" /><text eleType="note" fill="rgb(0,0,0)" font-family="'Maestro'" font-size="20.500000" id="1856" positionX="422.172" svgLId="621" transform="translate(368.36, 10.25)">œ</text><line fill="none" id="1857" stroke="rgb(0,0,0)" stroke-width="0.384" svgLId="622" x1="368.55" x2="368.55" y1="11.10" y2="28.61" /><text eleType="note" fill="rgb(0,0,0)" font-family="'Maestro'" font-size="20.500000" id="1858" positionX="435.839" svgLId="623" transform="translate(382.03, 12.81)">œ</text><line fill="none" id="1859" stroke="rgb(0,0,0)" stroke-width="0.384" svgLId="624" x1="382.22" x2="382.22" y1="13.67" y2="29.47" /><path d="M 341.026,25.625 L 382.409,28.187 L 382.409,30.750 L 341.026,28.187 L 341.026,25.625" fill="rgb(0,0,0)" fill-rule="nonzero" id="1860" stroke="none" svgLId="625" /><path d="M 341.026,21.781 L 382.409,24.343 L 382.409,26.906 L 341.026,24.343 L 341.026,21.781" fill="rgb(0,0,0)" fill-rule="nonzero" id="1861" stroke="none" svgLId="626" /><text eleType="note" fill="rgb(0,0,0)" font-family="'Maestro'" font-size="20.500000" id="1862" positionX="449.505" svgLId="627" transform="translate(395.69, 15.38)">œ</text><line fill="none" id="1863" stroke="rgb(0,0,0)" stroke-width="0.384" svgLId="628" x1="395.88" x2="395.88" y1="16.23" y2="32.03" /><text eleType="note" fill="rgb(0,0,0)" font-family="'Maestro'" font-size="20.500000" id="1864" positionX="463.172" svgLId="629" transform="translate(409.36, 0.00)">œ</text><line fill="none" id="1865" stroke="rgb(0,0,0)" stroke-width="0.384" svgLId="630" x1="409.55" x2="409.55" y1="0.85" y2="31.18" /><text fill="rgb(0,0,0)" font-family="'Times'" font-size="8.541667" id="1866" svgLId="631" transform="translate(410.43, -5.13)">4</text><text eleType="note" fill="rgb(0,0,0)" font-family="'Maestro'" font-size="20.500000" id="1867" positionX="476.839" svgLId="632" transform="translate(423.03, 2.56)">œ</text><line fill="none" id="1868" stroke="rgb(0,0,0)" stroke-width="0.384" svgLId="633" x1="423.22" x2="423.22" y1="3.42" y2="30.32" /><text eleType="note" fill="rgb(0,0,0)" font-family="'Maestro'" font-size="20.500000" id="1869" positionX="490.505" svgLId="634" transform="translate(436.69, 5.13)">œ</text><line fill="none" id="1870" stroke="rgb(0,0,0)" stroke-width="0.384" svgLId="635" x1="436.88" x2="436.88" y1="5.98" y2="29.47" /><path d="M 395.692,30.750 L 437.076,28.187 L 437.076,30.750 L 395.692,33.312 L 395.692,30.750" fill="rgb(0,0,0)" fill-rule="nonzero" id="1871" stroke="none" svgLId="636" /><path d="M 395.692,26.906 L 437.076,24.343 L 437.076,26.906 L 395.692,29.468 L 395.692,26.906" fill="rgb(0,0,0)" fill-rule="nonzero" id="1872" stroke="none" svgLId="637" /><text eleType="note" fill="rgb(0,0,0)" font-family="'Maestro'" font-size="20.500000" id="1873" positionX="504.172" svgLId="638" transform="translate(450.36, 7.69)">œ</text><line fill="none" id="1874" stroke="rgb(0,0,0)" stroke-width="0.384" svgLId="639" x1="456.71" x2="456.71" y1="6.83" y2="-8.97" /><text eleType="note" fill="rgb(0,0,0)" font-family="'Maestro'" font-size="20.500000" id="1875" positionX="517.839" svgLId="640" transform="translate(464.03, 10.25)">œ</text><line fill="none" id="1876" stroke="rgb(0,0,0)" stroke-width="0.384" svgLId="641" x1="470.37" x2="470.37" y1="9.40" y2="-8.12" /><text fill="rgb(0,0,0)" font-family="'Times'" font-size="8.541667" id="1877" svgLId="642" transform="translate(465.09, -11.96)">3</text><text eleType="note" fill="rgb(0,0,0)" font-family="'Maestro'" font-size="20.500000" id="1878" positionX="531.505" svgLId="643" transform="translate(477.69, 12.81)">œ</text><line fill="none" id="1879" stroke="rgb(0,0,0)" stroke-width="0.384" svgLId="644" x1="484.04" x2="484.04" y1="11.96" y2="-7.26" /><text eleType="note" fill="rgb(0,0,0)" font-family="'Maestro'" font-size="20.500000" id="1880" positionX="545.172" svgLId="645" transform="translate(491.36, 15.38)">œ</text><line fill="none" id="1881" stroke="rgb(0,0,0)" stroke-width="0.384" svgLId="646" x1="497.71" x2="497.71" y1="14.52" y2="-6.41" /><path d="M 456.515,-10.250 L 497.899,-7.688 L 497.899,-5.125 L 456.515,-7.688 L 456.515,-10.250" fill="rgb(0,0,0)" fill-rule="nonzero" id="1882" stroke="none" svgLId="647" /><path d="M 456.515,-6.407 L 497.899,-3.844 L 497.899,-1.282 L 456.515,-3.844 L 456.515,-6.407" fill="rgb(0,0,0)" fill-rule="nonzero" id="1883" stroke="none" svgLId="648" /><text fill="rgb(0,0,0)" font-family="'Maestro'" font-size="20.500000" id="1884" svgLId="649" transform="translate(284.22, 79.44)">J</text><line fill="none" id="1885" stroke="rgb(0,0,0)" stroke-width="0.384" svgLId="650" x1="284.42" x2="284.42" y1="67.48" y2="84.56" /><text eleType="note" fill="rgb(0,0,0)" font-family="'Maestro'" font-size="20.500000" id="1886" positionX="338.036" svgLId="651" transform="translate(284.22, 66.63)">œ</text><text fill="rgb(0,0,0)" font-family="'Maestro'" font-size="20.500000" id="1887" svgLId="652" transform="translate(277.60, 66.63)">#</text><text eleType="note" fill="rgb(0,0,0)" font-family="'Maestro'" font-size="20.500000" id="1888" positionX="367.505" svgLId="653" transform="translate(313.69, 71.75)">‰</text><text eleType="note" fill="rgb(0,0,0)" font-family="'Maestro'" font-size="20.500000" id="1889" positionX="394.839" svgLId="654" transform="translate(341.03, 71.75)">‰</text><line fill="none" id="1890" stroke="rgb(0,0,0)" stroke-width="0.384" svgLId="655" x1="367.08" x2="376.26" y1="56.38" y2="56.38" /><text eleType="note" fill="rgb(0,0,0)" font-family="'Maestro'" font-size="20.500000" id="1891" positionX="422.172" svgLId="656" transform="translate(368.36, 53.81)">œ</text><line fill="none" id="1892" stroke="rgb(0,0,0)" stroke-width="0.384" svgLId="657" x1="368.55" x2="368.55" y1="54.67" y2="83.28" /><text eleType="note" fill="rgb(0,0,0)" font-family="'Maestro'" font-size="20.500000" id="1893" positionX="449.505" svgLId="658" transform="translate(395.69, 69.19)">œ</text><line fill="none" id="1894" stroke="rgb(0,0,0)" stroke-width="0.384" svgLId="659" x1="395.88" x2="395.88" y1="70.04" y2="85.84" /><path d="M 368.359,82.000 L 396.076,84.562 L 396.076,87.125 L 368.359,84.562 L 368.359,82.000" fill="rgb(0,0,0)" fill-rule="nonzero" id="1895" stroke="none" svgLId="660" /><text eleType="note" fill="rgb(0,0,0)" font-family="'Maestro'" font-size="20.500000" id="1896" positionX="476.839" svgLId="661" transform="translate(423.03, 71.75)">‰</text><text eleType="note" fill="rgb(0,0,0)" font-family="'Maestro'" font-size="20.500000" id="1897" positionX="504.172" svgLId="662" transform="translate(450.36, 71.75)">‰</text><text fill="rgb(0,0,0)" font-family="'Maestro'" font-size="20.500000" id="1898" svgLId="663" transform="translate(477.69, 69.19)">J</text><line fill="none" id="1899" stroke="rgb(0,0,0)" stroke-width="0.384" svgLId="664" x1="477.88" x2="477.88" y1="57.23" y2="74.31" /><line fill="none" id="1900" stroke="rgb(0,0,0)" stroke-width="0.384" svgLId="665" x1="476.41" x2="485.59" y1="56.38" y2="56.38" /><text eleType="note" fill="rgb(0,0,0)" font-family="'Maestro'" font-size="20.500000" id="1901" positionX="531.505" svgLId="666" transform="translate(477.69, 56.38)">œ</text><path d="M 371.776,48.687 C 382.880,46.338 395.052,53.172 398.895,63.849 L 398.895,63.849 C 394.426,54.290 382.254,47.457 371.776,48.687" fill="rgb(0,0,0)" id="1902" stroke="none" svgLId="667" /><path d="M 243.651,46.125 C 258.598,40.359 279.312,47.619 287.427,61.286 L 287.427,61.286 C 278.893,48.830 258.179,41.570 243.651,46.125" fill="rgb(0,0,0)" id="1903" stroke="none" svgLId="668" /><path d="M 480.895,51.036 C 487.729,44.843 498.192,44.843 505.026,51.036 L 505.026,51.036 C 498.192,46.125 487.729,46.125 480.895,51.036" fill="rgb(0,0,0)" id="1904" stroke="none" svgLId="669" /></g></svg>